<svg width="263" height="179" viewBox="0 0 263 179" fill="none" xmlns="http://www.w3.org/2000/svg">
<path d="M158.909 71.9708C158.795 70.1633 158.718 68.3393 158.718 66.4768C158.718 33.0733 174.287 11.5368 196.825 11.5368C215.393 11.5368 231.284 26.1619 234.931 49.9948H245.818L245.824 0.548828H234.931C234.931 0.548828 232.029 8.82279 229.487 6.92187C219.149 1.06526 209.22 0.702659 196.694 0.702659C165.12 0.702659 136.943 29.4473 136.943 66.0373C136.943 68.0371 137.058 70.0095 137.21 71.9708H125.784C125.942 70.0095 126.056 68.0371 126.056 66.0373C126.056 29.4473 97.879 0.702659 66.3053 0.702659C53.7792 0.702659 43.8498 1.05977 33.5121 6.92187C30.9699 8.82279 28.0684 0.548828 28.0684 0.548828H17.1754L17.1809 49.9948H28.0684C31.7157 26.1619 47.606 11.5368 66.1746 11.5368C88.7117 11.5368 104.281 33.0733 104.281 66.4768C104.281 68.3393 104.205 70.1633 104.09 71.9708H0.849609V82.9588H6.34235C12.2379 82.9588 17.1046 87.6892 17.2244 93.6337C17.4313 103.776 18.4003 115.956 22.6246 121.417C29.5327 130.345 38.9559 137.899 66.1746 137.899C93.5131 137.899 120.177 113.027 126.056 82.9588H136.943C142.823 113.027 169.486 137.899 196.825 137.899C224.043 137.899 233.466 130.345 240.375 121.417C244.599 115.956 245.568 103.776 245.775 93.6337C245.895 87.6892 250.767 82.9588 256.657 82.9588H262.15V71.9708H158.909ZM63.3275 125.427C54.5903 125.427 40.7087 125.394 38.9559 115.923C38.3625 112.72 38.4605 102.039 38.6456 93.6941C38.7817 87.7221 43.6103 82.9588 49.5331 82.9588H104.281C99.9585 109.226 82.5875 125.427 63.3275 125.427ZM224.043 115.923C222.29 125.394 208.409 125.427 199.672 125.427C180.417 125.427 163.041 109.226 158.718 82.9588H213.466C219.389 82.9588 224.218 87.7221 224.354 93.6941C224.539 102.039 224.637 112.72 224.043 115.923Z" fill="#43A047"/>
<path d="M46.7554 178.099C45.4523 178.099 44.2481 177.878 43.1428 177.436C42.0376 176.977 41.0726 176.346 40.2478 175.544C39.4395 174.741 38.8127 173.808 38.3673 172.743C37.9219 171.662 37.6992 170.491 37.6992 169.23C37.6992 167.986 37.9219 166.831 38.3673 165.766C38.8292 164.685 39.4725 163.752 40.2973 162.966C41.1221 162.163 42.0871 161.541 43.1923 161.099C44.3141 160.656 45.5182 160.435 46.8049 160.435C47.7122 160.435 48.5865 160.558 49.4278 160.804C50.269 161.05 51.0279 161.393 51.7042 161.836C52.3805 162.278 52.9414 162.777 53.3868 163.334L51.3578 165.447C50.8959 165.005 50.4175 164.636 49.9226 164.341C49.4443 164.047 48.9411 163.817 48.4133 163.654C47.8854 163.49 47.341 163.408 46.7802 163.408C45.9554 163.408 45.1883 163.555 44.479 163.85C43.7862 164.145 43.1758 164.554 42.648 165.078C42.1366 165.603 41.7325 166.217 41.4355 166.921C41.1386 167.625 40.9901 168.395 40.9901 169.23C40.9901 170.033 41.1386 170.794 41.4355 171.515C41.7489 172.236 42.1778 172.866 42.7222 173.407C43.2666 173.947 43.8934 174.373 44.6027 174.684C45.3285 174.979 46.0956 175.126 46.9039 175.126C47.5142 175.126 48.0833 175.036 48.6112 174.856C49.1391 174.676 49.6092 174.43 50.0216 174.119C50.434 173.791 50.7474 173.415 50.9619 172.989C51.1928 172.563 51.3083 172.105 51.3083 171.613V171.073L51.7537 171.589H46.6317V168.739H54.4755C54.5085 168.919 54.5332 169.124 54.5497 169.353C54.5662 169.566 54.5745 169.779 54.5745 169.992C54.591 170.188 54.5992 170.36 54.5992 170.508C54.5992 171.638 54.4013 172.67 54.0054 173.603C53.6095 174.52 53.0486 175.315 52.3228 175.986C51.6135 176.658 50.7804 177.182 49.8237 177.558C48.8834 177.919 47.8607 178.099 46.7554 178.099Z" fill="#43A047"/>
<path d="M63.5437 178.099C62.1745 178.099 60.9621 177.812 59.9064 177.239C58.8671 176.666 58.0506 175.888 57.4567 174.905C56.8794 173.906 56.5907 172.768 56.5907 171.49C56.5907 170.475 56.7556 169.55 57.0856 168.714C57.4155 167.879 57.8691 167.158 58.4465 166.552C59.0403 165.93 59.7414 165.455 60.5497 165.128C61.3745 164.784 62.2735 164.612 63.2468 164.612C64.1045 164.612 64.9046 164.776 65.6469 165.103C66.3892 165.431 67.0326 165.881 67.5769 166.454C68.1213 167.011 68.5337 167.683 68.8141 168.469C69.111 169.238 69.2512 170.082 69.2348 170.999L69.21 172.055H58.6444L58.0753 169.992H66.6614L66.2655 170.409V169.869C66.216 169.361 66.0511 168.919 65.7706 168.542C65.4902 168.149 65.1273 167.846 64.6819 167.633C64.253 167.404 63.7746 167.289 63.2468 167.289C62.4385 167.289 61.7539 167.445 61.193 167.756C60.6487 168.067 60.2363 168.518 59.9558 169.107C59.6754 169.681 59.5352 170.401 59.5352 171.269C59.5352 172.105 59.7084 172.833 60.0548 173.456C60.4177 174.078 60.9208 174.561 61.5642 174.905C62.224 175.233 62.9911 175.396 63.8654 175.396C64.4757 175.396 65.0366 175.298 65.5479 175.102C66.0593 174.905 66.6119 174.553 67.2058 174.045L68.7151 176.133C68.2697 176.543 67.7584 176.895 67.181 177.19C66.6202 177.468 66.0263 177.689 65.3995 177.853C64.7726 178.017 64.154 178.099 63.5437 178.099Z" fill="#43A047"/>
<path d="M78.042 178.099C76.6728 178.099 75.4604 177.812 74.4046 177.239C73.3654 176.666 72.5489 175.888 71.955 174.905C71.3777 173.906 71.089 172.768 71.089 171.49C71.089 170.475 71.2539 169.55 71.5839 168.714C71.9138 167.879 72.3674 167.158 72.9448 166.552C73.5386 165.93 74.2397 165.455 75.048 165.128C75.8728 164.784 76.7718 164.612 77.7451 164.612C78.6028 164.612 79.4029 164.776 80.1452 165.103C80.8875 165.431 81.5309 165.881 82.0752 166.454C82.6196 167.011 83.032 167.683 83.3124 168.469C83.6093 169.238 83.7495 170.082 83.733 170.999L83.7083 172.055H73.1427L72.5736 169.992H81.1597L80.7638 170.409V169.869C80.7143 169.361 80.5494 168.919 80.2689 168.542C79.9885 168.149 79.6256 167.846 79.1802 167.633C78.7513 167.404 78.2729 167.289 77.7451 167.289C76.9368 167.289 76.2522 167.445 75.6913 167.756C75.147 168.067 74.7346 168.518 74.4541 169.107C74.1737 169.681 74.0335 170.401 74.0335 171.269C74.0335 172.105 74.2067 172.833 74.5531 173.456C74.916 174.078 75.4191 174.561 76.0625 174.905C76.7223 175.233 77.4894 175.396 78.3636 175.396C78.974 175.396 79.5349 175.298 80.0462 175.102C80.5576 174.905 81.1102 174.553 81.7041 174.045L83.2134 176.133C82.768 176.543 82.2567 176.895 81.6793 177.19C81.1185 177.468 80.5246 177.689 79.8978 177.853C79.2709 178.017 78.6523 178.099 78.042 178.099Z" fill="#43A047"/>
<path d="M89.2741 173.898L88.6802 171.073L94.8662 164.907H98.9242L89.2741 173.898ZM86.4286 177.853V159.674H89.472V177.853H86.4286ZM95.2373 177.853L90.4371 172.08L92.5898 170.262L98.9984 177.853H95.2373Z" fill="#43A047"/>
<path d="M105.233 178.099C104.079 178.099 103.039 177.91 102.116 177.534C101.208 177.141 100.466 176.584 99.8888 175.863L101.868 174.168C102.363 174.725 102.916 175.126 103.526 175.372C104.136 175.618 104.78 175.74 105.456 175.74C105.737 175.74 105.984 175.708 106.198 175.642C106.429 175.577 106.627 175.478 106.792 175.347C106.957 175.216 107.081 175.069 107.163 174.905C107.262 174.725 107.312 174.528 107.312 174.316C107.312 173.922 107.163 173.611 106.867 173.382C106.702 173.267 106.438 173.145 106.075 173.014C105.728 172.883 105.275 172.751 104.714 172.62C103.823 172.391 103.081 172.129 102.487 171.834C101.893 171.523 101.431 171.179 101.101 170.803C100.821 170.491 100.606 170.139 100.458 169.746C100.326 169.353 100.26 168.927 100.26 168.469C100.26 167.895 100.384 167.38 100.631 166.921C100.895 166.446 101.25 166.037 101.695 165.693C102.14 165.349 102.66 165.087 103.254 164.907C103.848 164.726 104.466 164.636 105.11 164.636C105.77 164.636 106.405 164.718 107.015 164.882C107.642 165.046 108.219 165.283 108.747 165.594C109.291 165.889 109.753 166.25 110.133 166.675L108.45 168.518C108.137 168.223 107.79 167.961 107.411 167.732C107.048 167.502 106.677 167.322 106.297 167.191C105.918 167.044 105.563 166.97 105.233 166.97C104.92 166.97 104.64 167.003 104.392 167.068C104.145 167.118 103.939 167.199 103.774 167.314C103.609 167.429 103.477 167.576 103.378 167.756C103.295 167.92 103.254 168.117 103.254 168.346C103.27 168.542 103.32 168.731 103.402 168.911C103.501 169.075 103.633 169.214 103.798 169.329C103.98 169.443 104.252 169.574 104.615 169.722C104.978 169.869 105.448 170.008 106.025 170.139C106.834 170.352 107.51 170.59 108.054 170.852C108.599 171.114 109.027 171.417 109.341 171.761C109.654 172.055 109.877 172.399 110.009 172.792C110.141 173.185 110.207 173.62 110.207 174.094C110.207 174.864 109.984 175.552 109.539 176.158C109.11 176.764 108.516 177.239 107.757 177.583C107.015 177.927 106.174 178.099 105.233 178.099Z" fill="#43A047"/>
<path d="M113.432 177.853V160.656H116.649V177.853H113.432ZM114.917 170.803V167.904H123.849V170.803H114.917ZM114.917 163.604V160.656H124.913V163.604H114.917Z" fill="#43A047"/>
<path d="M133.543 178.099C132.24 178.099 131.077 177.812 130.054 177.239C129.031 176.649 128.223 175.847 127.629 174.831C127.035 173.816 126.738 172.661 126.738 171.368C126.738 170.074 127.035 168.919 127.629 167.904C128.223 166.888 129.031 166.094 130.054 165.521C131.077 164.931 132.24 164.636 133.543 164.636C134.829 164.636 135.984 164.931 137.007 165.521C138.03 166.094 138.83 166.888 139.407 167.904C140.001 168.919 140.298 170.074 140.298 171.368C140.298 172.661 140.001 173.816 139.407 174.831C138.83 175.847 138.03 176.649 137.007 177.239C135.984 177.812 134.829 178.099 133.543 178.099ZM133.543 175.421C134.252 175.421 134.879 175.241 135.423 174.881C135.984 174.52 136.421 174.037 136.735 173.431C137.065 172.825 137.221 172.137 137.205 171.368C137.221 170.581 137.065 169.885 136.735 169.279C136.421 168.673 135.984 168.198 135.423 167.855C134.879 167.494 134.252 167.314 133.543 167.314C132.833 167.314 132.19 167.494 131.613 167.855C131.052 168.198 130.615 168.682 130.301 169.304C129.988 169.91 129.831 170.598 129.831 171.368C129.831 172.137 129.988 172.825 130.301 173.431C130.615 174.037 131.052 174.52 131.613 174.881C132.19 175.241 132.833 175.421 133.543 175.421Z" fill="#43A047"/>
<path d="M143.02 177.853V164.907H146.014L146.064 169.034L145.643 168.1C145.825 167.445 146.138 166.855 146.583 166.331C147.029 165.807 147.54 165.398 148.117 165.103C148.711 164.792 149.33 164.636 149.973 164.636C150.254 164.636 150.518 164.661 150.765 164.71C151.029 164.759 151.243 164.816 151.408 164.882L150.592 168.198C150.41 168.1 150.188 168.018 149.924 167.953C149.66 167.887 149.396 167.855 149.132 167.855C148.72 167.855 148.324 167.936 147.944 168.1C147.581 168.248 147.26 168.461 146.979 168.739C146.699 169.017 146.476 169.345 146.311 169.722C146.163 170.082 146.088 170.491 146.088 170.95V177.853H143.02Z" fill="#43A047"/>
<path d="M161.848 178.099C160.545 178.099 159.34 177.878 158.235 177.436C157.13 176.977 156.165 176.346 155.34 175.544C154.532 174.741 153.905 173.808 153.46 172.743C153.014 171.662 152.792 170.491 152.792 169.23C152.792 167.986 153.014 166.831 153.46 165.766C153.921 164.685 154.565 163.752 155.39 162.966C156.214 162.163 157.179 161.541 158.285 161.099C159.406 160.656 160.611 160.435 161.897 160.435C162.804 160.435 163.679 160.558 164.52 160.804C165.361 161.05 166.12 161.393 166.796 161.836C167.473 162.278 168.034 162.777 168.479 163.334L166.45 165.447C165.988 165.005 165.51 164.636 165.015 164.341C164.537 164.047 164.033 163.817 163.506 163.654C162.978 163.49 162.433 163.408 161.872 163.408C161.048 163.408 160.281 163.555 159.571 163.85C158.878 164.145 158.268 164.554 157.74 165.078C157.229 165.603 156.825 166.217 156.528 166.921C156.231 167.625 156.082 168.395 156.082 169.23C156.082 170.033 156.231 170.794 156.528 171.515C156.841 172.236 157.27 172.866 157.815 173.407C158.359 173.947 158.986 174.373 159.695 174.684C160.421 174.979 161.188 175.126 161.996 175.126C162.607 175.126 163.176 175.036 163.704 174.856C164.231 174.676 164.702 174.43 165.114 174.119C165.526 173.791 165.84 173.415 166.054 172.989C166.285 172.563 166.401 172.105 166.401 171.613V171.073L166.846 171.589H161.724V168.739H169.568C169.601 168.919 169.626 169.124 169.642 169.353C169.659 169.566 169.667 169.779 169.667 169.992C169.683 170.188 169.691 170.36 169.691 170.508C169.691 171.638 169.494 172.67 169.098 173.603C168.702 174.52 168.141 175.315 167.415 175.986C166.706 176.658 165.873 177.182 164.916 177.558C163.976 177.919 162.953 178.099 161.848 178.099Z" fill="#43A047"/>
<path d="M178.636 178.099C177.267 178.099 176.054 177.812 174.999 177.239C173.959 176.666 173.143 175.888 172.549 174.905C171.972 173.906 171.683 172.768 171.683 171.49C171.683 170.475 171.848 169.55 172.178 168.714C172.508 167.879 172.961 167.158 173.539 166.552C174.133 165.93 174.834 165.455 175.642 165.128C176.467 164.784 177.366 164.612 178.339 164.612C179.197 164.612 179.997 164.776 180.739 165.103C181.482 165.431 182.125 165.881 182.669 166.454C183.214 167.011 183.626 167.683 183.906 168.469C184.203 169.238 184.344 170.082 184.327 170.999L184.302 172.055H173.737L173.168 169.992H181.754L181.358 170.409V169.869C181.308 169.361 181.143 168.919 180.863 168.542C180.583 168.149 180.22 167.846 179.774 167.633C179.345 167.404 178.867 167.289 178.339 167.289C177.531 167.289 176.846 167.445 176.285 167.756C175.741 168.067 175.329 168.518 175.048 169.107C174.768 169.681 174.628 170.401 174.628 171.269C174.628 172.105 174.801 172.833 175.147 173.456C175.51 174.078 176.013 174.561 176.656 174.905C177.316 175.233 178.083 175.396 178.958 175.396C179.568 175.396 180.129 175.298 180.64 175.102C181.152 174.905 181.704 174.553 182.298 174.045L183.807 176.133C183.362 176.543 182.851 176.895 182.273 177.19C181.712 177.468 181.119 177.689 180.492 177.853C179.865 178.017 179.246 178.099 178.636 178.099Z" fill="#43A047"/>
<path d="M193.134 178.099C191.765 178.099 190.553 177.812 189.497 177.239C188.458 176.666 187.641 175.888 187.047 174.905C186.47 173.906 186.181 172.768 186.181 171.49C186.181 170.475 186.346 169.55 186.676 168.714C187.006 167.879 187.46 167.158 188.037 166.552C188.631 165.93 189.332 165.455 190.14 165.128C190.965 164.784 191.864 164.612 192.837 164.612C193.695 164.612 194.495 164.776 195.238 165.103C195.98 165.431 196.623 165.881 197.168 166.454C197.712 167.011 198.124 167.683 198.405 168.469C198.702 169.238 198.842 170.082 198.825 170.999L198.801 172.055H188.235L187.666 169.992H196.252L195.856 170.409V169.869C195.807 169.361 195.642 168.919 195.361 168.542C195.081 168.149 194.718 167.846 194.273 167.633C193.844 167.404 193.365 167.289 192.837 167.289C192.029 167.289 191.344 167.445 190.784 167.756C190.239 168.067 189.827 168.518 189.546 169.107C189.266 169.681 189.126 170.401 189.126 171.269C189.126 172.105 189.299 172.833 189.645 173.456C190.008 174.078 190.511 174.561 191.155 174.905C191.815 175.233 192.582 175.396 193.456 175.396C194.066 175.396 194.627 175.298 195.139 175.102C195.65 174.905 196.203 174.553 196.796 174.045L198.306 176.133C197.86 176.543 197.349 176.895 196.772 177.19C196.211 177.468 195.617 177.689 194.99 177.853C194.363 178.017 193.745 178.099 193.134 178.099Z" fill="#43A047"/>
<path d="M204.366 173.898L203.773 171.073L209.958 164.907H214.016L204.366 173.898ZM201.521 177.853V159.674H204.564V177.853H201.521ZM210.33 177.853L205.529 172.08L207.682 170.262L214.091 177.853H210.33Z" fill="#43A047"/>
<path d="M220.326 178.099C219.171 178.099 218.132 177.91 217.208 177.534C216.301 177.141 215.558 176.584 214.981 175.863L216.961 174.168C217.455 174.725 218.008 175.126 218.618 175.372C219.229 175.618 219.872 175.74 220.548 175.74C220.829 175.74 221.076 175.708 221.291 175.642C221.522 175.577 221.72 175.478 221.885 175.347C222.05 175.216 222.173 175.069 222.256 174.905C222.355 174.725 222.404 174.528 222.404 174.316C222.404 173.922 222.256 173.611 221.959 173.382C221.794 173.267 221.53 173.145 221.167 173.014C220.821 172.883 220.367 172.751 219.806 172.62C218.915 172.391 218.173 172.129 217.579 171.834C216.985 171.523 216.523 171.179 216.194 170.803C215.913 170.491 215.699 170.139 215.55 169.746C215.418 169.353 215.352 168.927 215.352 168.469C215.352 167.895 215.476 167.38 215.723 166.921C215.987 166.446 216.342 166.037 216.787 165.693C217.233 165.349 217.752 165.087 218.346 164.907C218.94 164.726 219.559 164.636 220.202 164.636C220.862 164.636 221.497 164.718 222.107 164.882C222.734 165.046 223.311 165.283 223.839 165.594C224.384 165.889 224.846 166.25 225.225 166.675L223.542 168.518C223.229 168.223 222.883 167.961 222.503 167.732C222.14 167.502 221.769 167.322 221.39 167.191C221.01 167.044 220.656 166.97 220.326 166.97C220.012 166.97 219.732 167.003 219.484 167.068C219.237 167.118 219.031 167.199 218.866 167.314C218.701 167.429 218.569 167.576 218.47 167.756C218.387 167.92 218.346 168.117 218.346 168.346C218.363 168.542 218.412 168.731 218.495 168.911C218.594 169.075 218.726 169.214 218.891 169.329C219.072 169.443 219.344 169.574 219.707 169.722C220.07 169.869 220.54 170.008 221.118 170.139C221.926 170.352 222.602 170.59 223.147 170.852C223.691 171.114 224.12 171.417 224.433 171.761C224.747 172.055 224.969 172.399 225.101 172.792C225.233 173.185 225.299 173.62 225.299 174.094C225.299 174.864 225.077 175.552 224.631 176.158C224.202 176.764 223.608 177.239 222.85 177.583C222.107 177.927 221.266 178.099 220.326 178.099Z" fill="#43A047"/>
</svg>
