<svg width="263" height="138" viewBox="0 0 263 138" fill="none" xmlns="http://www.w3.org/2000/svg">
<path d="M158.909 71.9708C158.795 70.1633 158.718 68.3393 158.718 66.4768C158.718 33.0733 174.287 11.5368 196.825 11.5368C215.393 11.5368 231.284 26.1619 234.931 49.9948H245.818L245.824 0.548828H234.931C234.931 0.548828 232.029 8.82279 229.487 6.92187C219.149 1.06526 209.22 0.702659 196.694 0.702659C165.12 0.702659 136.943 29.4473 136.943 66.0373C136.943 68.0371 137.058 70.0095 137.21 71.9708H125.784C125.942 70.0095 126.056 68.0371 126.056 66.0373C126.056 29.4473 97.879 0.702659 66.3053 0.702659C53.7792 0.702659 43.8498 1.05977 33.5121 6.92187C30.9699 8.82279 28.0684 0.548828 28.0684 0.548828H17.1754L17.1809 49.9948H28.0684C31.7157 26.1619 47.606 11.5368 66.1746 11.5368C88.7117 11.5368 104.281 33.0733 104.281 66.4768C104.281 68.3393 104.205 70.1633 104.09 71.9708H0.849609V82.9588H6.34235C12.2379 82.9588 17.1046 87.6892 17.2244 93.6337C17.4313 103.776 18.4003 115.956 22.6246 121.417C29.5327 130.345 38.9559 137.899 66.1746 137.899C93.5131 137.899 120.177 113.027 126.056 82.9588H136.943C142.823 113.027 169.486 137.899 196.825 137.899C224.043 137.899 233.466 130.345 240.375 121.417C244.599 115.956 245.568 103.776 245.775 93.6337C245.895 87.6892 250.767 82.9588 256.657 82.9588H262.15V71.9708H158.909ZM63.3275 125.427C54.5903 125.427 40.7087 125.394 38.9559 115.923C38.3625 112.72 38.4605 102.039 38.6456 93.6941C38.7817 87.7221 43.6103 82.9588 49.5331 82.9588H104.281C99.9585 109.226 82.5875 125.427 63.3275 125.427ZM224.043 115.923C222.29 125.394 208.409 125.427 199.672 125.427C180.417 125.427 163.041 109.226 158.718 82.9588H213.466C219.389 82.9588 224.218 87.7221 224.354 93.6941C224.539 102.039 224.637 112.72 224.043 115.923Z" fill="#43A047"/>
</svg>
